<svg xmlns="http://www.w3.org/2000/svg" id="Layer_1" version="1.1" viewBox="0 0 860.8 728.5">
  <!-- Generator: Adobe Illustrator 29.8.2, SVG Export Plug-In . SVG Version: 2.1.1 Build 3)  -->
  <path d="M334.2,330.4c59.4-7.1,130.3,4,190.9-.3,55.8,8.5,99.7,55.6,104.7,111.8v264.6c-1.3,10.1-7.9,17.6-17.3,21.1l-357.5,1c-13.1-.4-23.6-11.1-24-24,5-85.5-6.4-178,0-262.7s49.4-105.1,103.1-111.5Z" fill="#ffffff"/>
  <path d="M414.7.8c123.1-12.6,208,123,141.9,228.1-58.1,92.3-195.7,91.5-253-1.2-57.4-92.9,2.9-215.8,111.1-226.9Z" fill="#ffffff"/>
  <path d="M190.9,393.1c-3.4,15.6-8.6,30.8-9.7,46.9-5.7,87.9,4.5,181.8,0,270.3l3.9,18.1h-119.8c-3.8,0-24.8-8.5-29.1-11.1-21.2-12.8-32.9-36.3-35.2-60.7,7.1-85.5-28-193.4,60.8-245.9,12.4-7.3,39.2-17.6,53.3-17.6h75.7Z" fill="#ffffff"/>
  <path d="M675.7,728.4l3.9-18.1c-4.5-88.5,5.7-182.4,0-270.3-1-16-6.3-31.3-9.7-46.9h75.7c14,0,40.9,10.3,53.3,17.6,88.8,52.5,53.7,160.4,60.8,245.9-2.2,24.4-13.9,47.9-35.2,60.7-4.3,2.6-25.3,11.1-29.1,11.1h-119.8Z" fill="#ffffff"/>
  <path d="M247.7,171.4c47.8,47.7,41.2,130.8-14.1,169.6-82.8,58.1-192.5-12.2-174.5-111.3,15.7-86.7,126-120.7,188.6-58.3Z" fill="#ffffff"/>
  <path d="M613,171.4c62.6-62.4,172.9-28.5,188.6,58.3,18,99.1-91.8,169.4-174.5,111.3-55.3-38.8-61.9-121.9-14.1-169.6Z" fill="#ffffff"/>
</svg>