<?xml version="1.0" encoding="UTF-8"?>
<svg id="Layer_1" xmlns="http://www.w3.org/2000/svg" version="1.1" viewBox="0 0 1010 1009.7">
  <!-- Generator: Adobe Illustrator 29.8.2, SVG Export Plug-In . SVG Version: 2.1.1 Build 3)  -->
  <defs>
    <style>
      .st0 {
        fill: #fff;
      }
    </style>
  </defs>
  <path class="st0" d="M387.3,293.8c18-2.1,33.1,2.1,48.6,11,92,87,182.3,177.3,269.4,269.4,12.4,20.5,13.4,36.9,8.8,59.8-15.7,77.6-44.9,157.2-62.7,234.8-10.2,20.7-29.7,38.2-53.3,41.4-32.7,4.4-75.7.6-109.9,2.8-148.7,9.5-294.4,44.5-433.4,96.4-32.4,3.5-57.7-22.4-54.5-54.5,61.2-155.7,91.9-320.1,99.1-486.9,1.1-26.3-5-53.9,7.7-78,8.2-15.6,24.2-27.9,40.6-33.8l239.6-62.4ZM378.3,503.4c-109.1,7.5-154.6,144.2-69.4,214.6,87.2,72.2,216.3-6.4,195.6-116.7-10.9-58.1-67-102-126.1-98Z"/>
  <path class="st0" d="M637.5.7c.7,0,1.4-.2,2.1-.3,20-2.3,39.9,4.6,54.8,18.1,101.3,91.8,194.2,193.6,292.7,288.8.3.3.6.6.9.9,24.2,26.7,30.4,64.2,9.2,94.6-.7,1-1.5,1.9-2.4,2.8-37.1,34.6-71.7,78.1-109.8,110.8-28.1,24.2-63.2,27.1-93.5,5.3-.8-.6-1.6-1.2-2.3-1.9L492,222.7c-.4-.4-.7-.7-1.1-1.1-24-28-22.3-66.1.6-94.1,31.2-38.2,77.2-72.5,110.4-110.2.9-1,1.9-2,3-2.8,9.2-6.8,21.3-12.3,32.5-13.9Z"/>
</svg>