<?xml version="1.0" encoding="UTF-8"?>
<svg id="Layer_1" xmlns="http://www.w3.org/2000/svg" version="1.1" viewBox="0 0 1080 927.1">
  <!-- Generator: Adobe Illustrator 29.8.2, SVG Export Plug-In . SVG Version: 2.1.1 Build 3)  -->
  <defs>
    <style>
      .st0 {
        fill: #fff;
      }
    </style>
  </defs>
  <path class="st0" d="M389.8,3.3c92.8-9.8,198.9,5.8,293.1-.9,81.6,2.3,93.7,92.7,129.3,148.4,67.8,7.5,143.8-14.2,203.8,25.8,38,25.3,57.8,67.8,60.7,112.9-8.4,163.4,10.8,337.3-.1,499.4-4.6,68.3-45.5,121.2-113.8,134.5-282.1,4.6-566,5.4-848.1-.4-68.6-15.1-107.4-67.8-111.6-136.7-9.9-162,7.8-333.8,0-496.9,3.1-45.4,22.3-87.3,60.7-112.9,60.1-40,136.1-18.3,203.8-25.8,4.7-2.9,42.2-85.9,50.2-99.3,16.8-28.2,38.6-44.7,72-48.2ZM517.9,278.3c-176.2,16.4-273.3,216.2-176.8,364.8,97.2,149.5,324.1,141.5,407.4-16.7,87.6-166.3-42.5-365.7-230.7-348.1Z"/>
  <path class="st0" d="M520.6,353c120.5-13.8,214.3,105.2,170.9,218.9-52.5,137.5-248.1,138.7-302.4,1.9-38.9-98.1,26.7-208.8,131.5-220.8Z"/>
</svg>