<?xml version="1.0" encoding="UTF-8"?>
<svg id="Layer_1" xmlns="http://www.w3.org/2000/svg" version="1.1" viewBox="0 0 1008.8 1008.8">
  <!-- Generator: Adobe Illustrator 29.8.2, SVG Export Plug-In . SVG Version: 2.1.1 Build 3)  -->
  <defs>
    <style>
      .st0 {
        fill: #fff;
      }
    </style>
  </defs>
  <path class="st0" d="M472.6,1.1c378-24,647,366,491.1,712.1-157.9,350.4-638.9,400.8-866.3,89.4C-137.4,481.1,77.5,26.2,472.6,1.1ZM285.7,259.8c21.8-57.4,57-112.2,97.3-158.6,2.8-3.2,21-18.4,18-21.6-75.4,19.2-144.4,56.9-200.7,110.5-1.9,2.6-1.4,4.5,0,7.2s19.9,18.1,24.1,21.6c6.7,5.7,57.3,43.7,61.2,40.9ZM809.5,190.2c-9.4-2.6-15.4-12.8-22.9-19.2-51.4-43.9-113.9-73.8-178.9-91.3-1,4.1,1.6,4.8,3.6,7.2,8.4,10,19.1,19.5,27.6,30.1,34.4,42.4,64.9,91.9,84.1,142.9,1.4,1,22-12.2,25.3-14.4,16.2-10.8,47.5-34.3,58.8-49.3,1.6-2.1,3.3-2.5,2.4-6ZM470.7,317.5V108.5c-54.9,49.1-99.2,112.1-125.1,181.2,39.5,16.4,82.2,26.7,125.1,27.8ZM538,108.5v209c42.9-1,85.5-11.7,125.1-27.8-25.8-69.1-70.2-132.1-125.1-181.2ZM67.1,471.3h170.6c-.9-50.1,11.5-98.7,21.8-147.3l-50.3-31.9-56.6-46.6c-35.1,47.9-61.2,102.8-74.6,160.9-4.9,21.5-6.9,43.3-10.8,64.9ZM939.2,471.3c-5.4-81.4-35.1-160.3-82.9-225.8l-54.2,44.2-54.4,36.1c13.3,47.3,23.1,96.2,23.4,145.5h168.2ZM470.7,384.8c-51.1-.7-101-14.7-148.9-31.2l-19.2,117.7h168.2v-86.5ZM538,384.8v86.5h168.2l-19.2-117.7c-47.9,16.7-97.9,30.4-148.9,31.2ZM237.7,538.5H69.5c3.4,85.4,38.9,168.3,90.1,235.5,17.4-11.1,31.8-25.9,48.5-38,17.9-13,37.6-23.7,56.2-35.7-12.1-53.3-26.7-106.6-26.6-161.8ZM470.7,538.5h-168.2c4.4,7.8,1.6,16.8,2.4,25.2,3.4,36.2,11.7,72,21.7,106.8,46.9-13.9,94.6-28.7,144.1-28.8v-103.3ZM706.2,538.5h-168.2v103.3c49.5.3,97.2,14.6,144.1,28.8,9.9-34.8,18.3-70.6,21.7-106.9.8-8.5-2-17.4,2.4-25.2ZM941.6,538.5h-170.6c.6,55.2-13.5,108.8-26.6,161.9,22.1,12.7,44.4,26,64.9,41.3,5.5,4.1,37.3,32.9,39.8,32.2,38.8-49.6,67.6-108.8,81.8-170.5,4.9-21.5,6.9-43.3,10.8-64.9ZM470.7,709.1c-41.1.2-81.3,11.3-120.1,24,27.5,63.7,68.2,122.2,120.1,168.1v-192.2ZM538,709.1v192.2c52.6-45.1,91.8-104,120.2-166.9-38.5-13.6-79-24.7-120.2-25.3ZM401.1,930.1c2.1-1.8-30.6-35.9-33.6-39.7-26.5-33-49.8-70.9-69.4-108.4-2.2-4.2-4.7-16.6-8.9-17.6-30.8,14.7-56.5,37.4-82.7,58.8-.7,2.9,1.9,4.3,3.6,6,4.6,4.3,11.8,10.2,16.8,14.4,49.5,41.2,111.9,70.6,174.1,86.5ZM802.3,822.1c-7.9-1.3-12.1-9.5-18.1-14.4-7.5-6.2-59.7-44.3-64.6-43.2-15.8,26.7-28.8,55.3-46.1,81.4-19.2,28.9-40.6,51-62.3,77-2,2.4-4.6,3.1-3.6,7.2,63-16.8,123.5-45.2,174.1-86.5,3.7-3,23-18,20.5-21.5Z"/>
</svg>