<?xml version="1.0" encoding="UTF-8"?>
<svg id="Layer_1" xmlns="http://www.w3.org/2000/svg" version="1.1" viewBox="0 0 1240.7 734.5">
  <!-- Generator: Adobe Illustrator 29.8.2, SVG Export Plug-In . SVG Version: 2.1.1 Build 3)  -->
  <defs>
    <style>
      .st0 {
        fill: #fff;
      }
    </style>
  </defs>
  <path class="st0" d="M135.1.8l564.2-.8c84.9,5.3,134.6,58.5,139.8,142.6-6.3,145.7,8.4,298.4.1,443.2-4.9,85.3-53.4,139.5-140,145.3-183-7.9-374.8,10.5-556.8.1-77.8-4.4-131.6-47.3-142.5-126.1L.3,123.5C8.5,54.8,65.2,1.9,135.1.8Z"/>
  <path class="st0" d="M905.9,205.3c6.2-2.2,12.3-4.9,18.1-8.2,62.3-35.4,124.1-75.9,187.3-109,62-32.5,120.9-3.9,129.4,65.5v423.9c-4.9,61-63.9,95.3-119.2,69.1l-214.7-123.2-.9-318.1Z"/>
</svg>