<?xml version="1.0" encoding="UTF-8"?>
<svg id="Layer_1" xmlns="http://www.w3.org/2000/svg" version="1.1" viewBox="0 0 820.6 728.5">
  <!-- Generator: Adobe Illustrator 29.8.2, SVG Export Plug-In . SVG Version: 2.1.1 Build 3)  -->
  <defs>
    <style>
      .st0 {
        fill: #fff;
      }
    </style>
  </defs>
  <path class="st0" d="M735,199.1H85.5C148.5,75.2,276.3-2.3,416.3,0c134.8,2.2,257.8,79.7,318.7,199Z"/>
  <path class="st0" d="M735,529.4c-61.9,121.7-186.7,199.1-324.7,199.1s-262.9-77.3-324.7-199.1h649.5Z"/>
  <path class="st0" d="M760.6,232.9H60c-33.1,0-60,26.9-60,60v142.6c0,33.1,26.9,60,60,60h700.6c33.1,0,60-26.9,60-60v-142.6c0-33.1-26.9-60-60-60ZM233.8,446h-42.6l-27-79.9-27.3,79.9h-42.3l-49.9-146.7h42.3l28.6,88.6,28.6-88.6h39.5l28.6,88.6,28.6-88.6h42.6l-49.9,146.7ZM479.9,446h-42.6l-27-79.9-27.3,79.9h-42.3l-49.9-146.7h42.3l28.6,88.6,28.6-88.6h39.5l28.6,88.6,28.6-88.6h42.6l-49.9,146.7ZM725.9,446h-42.6l-27-79.9-27.3,79.9h-42.3l-49.9-146.7h42.3l28.6,88.6,28.6-88.6h39.5l28.6,88.6,28.6-88.6h42.6l-49.9,146.7Z"/>
</svg>