<?xml version="1.0" encoding="UTF-8"?>
<svg id="Layer_1" xmlns="http://www.w3.org/2000/svg" version="1.1" viewBox="0 0 1008.5 1008.8">
  <!-- Generator: Adobe Illustrator 29.8.2, SVG Export Plug-In . SVG Version: 2.1.1 Build 3)  -->
  <defs>
    <style>
      .st0 {
        fill: #fff;
      }
    </style>
  </defs>
  <path class="st0" d="M1008.5,258.5v628.4c0,63.3-66.7,122.7-129.1,121.8l-755-.4c-60.9-.8-124.5-59.7-124.5-121.4V258.5h1008.5ZM551.2,376.9c-9.3,2.1-20,13.3-22.5,22.6l-116.7,380.2c-3.7,43.5,52.5,57.1,68.4,15.7l116.2-378.1c2.3-26.6-18.2-46.4-45.4-40.3ZM322.9,447.2c-4.9,1-10.5,5-14.4,8.2-34.2,41-86.7,78.2-119.2,119.2-14,17.7-10.9,33.5,2.5,50.3,23.1,28.7,84.2,89.2,112.9,112.9,39.8,33,82.4-9.3,52.8-47.8l-91.5-91.8,94-96.2c21.1-27.7-3.5-61.7-37.1-54.7ZM666.6,447.2c-20.6,4.3-32.4,30.4-22.4,48.9l98.2,100.1-91.5,93.7c-26,28.1,1.6,70.7,37.8,57.9,4.8-1.7,9.7-5.6,13.7-8.9,28.9-23.3,88.9-84,112.9-112.9,14.4-17.3,19-32.3,3.8-51.6-32.5-41-84.9-78.2-119.2-119.2-9.3-8.4-21.2-10.7-33.4-8.2Z"/>
  <path class="st0" d="M1008.5,188.3H0v-66.5C0,58,66.4-.7,129.1,0l755,.4c60.9.8,124.5,59.7,124.5,121.4v66.5Z"/>
</svg>